<svg id="Layer_1" data-name="Layer 1" xmlns="http://www.w3.org/2000/svg" viewBox="0 0 558.804 368.303">
  <defs>
    <style>
      .cls-1, .cls-2 {
        fill: #fff;
      }

      .cls-2 {
        stroke: #fff;
        stroke-miterlimit: 10;
        stroke-width: 7px;
      }
    </style>
  </defs>
  <title>46ff3950-1e58-475b-8ac9-e9c511ab06bd</title>
  <g>
    <path class="cls-1" d="M30.211,21.225V19.547A10.483,10.483,0,0,1,24.828,16.9l2.139-2.6a9.3,9.3,0,0,0,3.244,2V12.876a8.194,8.194,0,0,1-3.543-1.667A3.909,3.909,0,0,1,25.541,8.2,4.371,4.371,0,0,1,26.83,4.953a5.589,5.589,0,0,1,3.381-1.529V2.3h2.438V3.469a10.583,10.583,0,0,1,4.577,1.909L35.34,8.092a8.818,8.818,0,0,0-2.691-1.38v3.312a8.653,8.653,0,0,1,3.668,1.725A3.932,3.932,0,0,1,37.5,14.808a4.367,4.367,0,0,1-1.322,3.266,5.845,5.845,0,0,1-3.531,1.541v1.61Zm0-14.6a1.277,1.277,0,0,0-.989,1.265,1.516,1.516,0,0,0,.989,1.4Zm3.61,8.372a1.268,1.268,0,0,0-.253-.805,2.26,2.26,0,0,0-.92-.6v2.829A1.432,1.432,0,0,0,33.821,14.992Z"/>
    <g>
      <path class="cls-1" d="M455.949,327.785a3.606,3.606,0,0,1-1.346,2.934,5.213,5.213,0,0,1-3.416,1.1,9.156,9.156,0,0,1-2.875-.494,8.476,8.476,0,0,1-2.691-1.461l1.519-2.162a6.609,6.609,0,0,0,4.116,1.5,1.861,1.861,0,0,0,1.059-.265.809.809,0,0,0,.391-.7,1.011,1.011,0,0,0-.54-.8,6.085,6.085,0,0,0-1.563-.69q-1.025-.322-1.564-.552a8.743,8.743,0,0,1-1.23-.668,2.854,2.854,0,0,1-1.4-2.587,3.39,3.39,0,0,1,1.38-2.794,5.612,5.612,0,0,1,3.565-1.082,7.78,7.78,0,0,1,4.37,1.473l-1.288,2.3a5.655,5.655,0,0,0-3.208-1.1q-1.6,0-1.6.875a.842.842,0,0,0,.506.759,10.2,10.2,0,0,0,1.68.644q1.172.369,1.668.564a8.271,8.271,0,0,1,1.184.609A2.81,2.81,0,0,1,455.949,327.785Z"/>
      <path class="cls-1" d="M469.1,331.639h-3.243v-1.5a4.063,4.063,0,0,1-3.3,1.68,4.906,4.906,0,0,1-3.3-1.139,3.793,3.793,0,0,1-1.334-3.036,3.212,3.212,0,0,1,1.381-2.841,6.6,6.6,0,0,1,3.771-.942h2.576V323.8q0-1.978-2.093-1.978a5.639,5.639,0,0,0-1.9.356,6.2,6.2,0,0,0-1.69.885l-1.541-2.23A9.228,9.228,0,0,1,464,319.057a5.762,5.762,0,0,1,3.68,1.127,4.269,4.269,0,0,1,1.427,3.565Zm-3.474-4.715v-.6h-2.162q-2.068,0-2.069,1.288a1.184,1.184,0,0,0,.5,1.023,2.387,2.387,0,0,0,1.414.356,2.512,2.512,0,0,0,1.621-.563A1.831,1.831,0,0,0,465.631,326.924Z"/>
      <path class="cls-1" d="M475.705,331.639h-3.45V314.572h3.45Z"/>
      <path class="cls-1" d="M489.689,329.844a6.92,6.92,0,0,1-4.911,1.979,6.513,6.513,0,0,1-4.657-1.736,6.1,6.1,0,0,1-1.84-4.658,6,6,0,0,1,1.874-4.646,6.324,6.324,0,0,1,4.428-1.726,6.4,6.4,0,0,1,4.335,1.541,5.3,5.3,0,0,1,1.783,4.232v1.84h-9.016a2.456,2.456,0,0,0,1.057,1.656,3.388,3.388,0,0,0,2.025.645,3.967,3.967,0,0,0,2.989-1.22Zm-3.312-7.336a2.61,2.61,0,0,0-1.736-.6,3.11,3.11,0,0,0-1.875.621,2.374,2.374,0,0,0-.988,1.679h5.428A2.451,2.451,0,0,0,486.377,322.508Z"/>
      <path class="cls-1" d="M502.5,327.785a3.606,3.606,0,0,1-1.346,2.934,5.209,5.209,0,0,1-3.416,1.1,9.161,9.161,0,0,1-2.875-.494,8.481,8.481,0,0,1-2.69-1.461l1.519-2.162a6.607,6.607,0,0,0,4.116,1.5,1.857,1.857,0,0,0,1.058-.265.808.808,0,0,0,.392-.7,1.014,1.014,0,0,0-.54-.8,6.11,6.11,0,0,0-1.564-.69q-1.024-.322-1.564-.552a8.852,8.852,0,0,1-1.23-.668,2.853,2.853,0,0,1-1.4-2.587,3.388,3.388,0,0,1,1.38-2.794,5.612,5.612,0,0,1,3.565-1.082,7.777,7.777,0,0,1,4.369,1.473l-1.287,2.3a5.658,5.658,0,0,0-3.209-1.1q-1.6,0-1.6.875a.842.842,0,0,0,.506.759,10.181,10.181,0,0,0,1.679.644q1.173.369,1.668.564a8.275,8.275,0,0,1,1.185.609A2.811,2.811,0,0,1,502.5,327.785Z"/>
      <path class="cls-1" d="M513.517,313.123h3.267l-9.66,21.092H503.88Z"/>
      <path class="cls-1" d="M523,331.822a5.225,5.225,0,0,1-3.921-1.863,6.55,6.55,0,0,1-1.726-4.623,6.282,6.282,0,0,1,1.68-4.52,5.27,5.27,0,0,1,3.934-1.76,4.72,4.72,0,0,1,3.68,1.588v-6.072H530.1v17.066H526.65v-1.633A4.48,4.48,0,0,1,523,331.822Zm-2.173-6.348a3.432,3.432,0,0,0,.9,2.449,2.785,2.785,0,0,0,2.092.955,2.614,2.614,0,0,0,2.036-.955,3.591,3.591,0,0,0,.839-2.461,3.772,3.772,0,0,0-.839-2.508,2.593,2.593,0,0,0-2.059-1,2.678,2.678,0,0,0-2.093,1.012A3.7,3.7,0,0,0,520.831,325.475Z"/>
      <path class="cls-1" d="M543.877,331.639h-3.243v-1.5a4.064,4.064,0,0,1-3.3,1.68,4.9,4.9,0,0,1-3.3-1.139,3.79,3.79,0,0,1-1.334-3.036,3.209,3.209,0,0,1,1.38-2.841,6.606,6.606,0,0,1,3.772-.942h2.575V323.8q0-1.978-2.093-1.978a5.643,5.643,0,0,0-1.9.356,6.2,6.2,0,0,0-1.69.885l-1.541-2.23a9.229,9.229,0,0,1,5.566-1.771,5.766,5.766,0,0,1,3.68,1.127,4.271,4.271,0,0,1,1.426,3.565Zm-3.473-4.715v-.6h-2.162q-2.071,0-2.07,1.288a1.184,1.184,0,0,0,.494,1.023,2.39,2.39,0,0,0,1.415.356,2.519,2.519,0,0,0,1.622-.563A1.833,1.833,0,0,0,540.4,326.924Z"/>
      <path class="cls-1" d="M549.006,336.514a5.016,5.016,0,0,1-3.427-1.472l1.563-2.553a2.583,2.583,0,0,0,1.795.851,1.007,1.007,0,0,0,.827-.471,1.664,1.664,0,0,0,.345-1q0-.529-4.783-12.6h3.68l3.014,7.705,3.012-7.705h3.681l-5.75,14.582a4.1,4.1,0,0,1-1.575,1.967A4.247,4.247,0,0,1,549.006,336.514Z"/>
    </g>
    <g>
      <path class="cls-1" d="M.713,212.561h6.51v16.078H3.772V215.62H.713Z"/>
      <path class="cls-1" d="M10.994,215.62v-3.059h9.844v2.484l-3.289,3.749a4.688,4.688,0,0,1,2.99,1.622,4.618,4.618,0,0,1,1.059,3,4.9,4.9,0,0,1-1.714,3.968,6.58,6.58,0,0,1-4.382,1.438,9.5,9.5,0,0,1-5.4-1.887l1.472-2.852a7.325,7.325,0,0,0,4.071,1.61,2.879,2.879,0,0,0,1.782-.529,1.8,1.8,0,0,0,.7-1.529,1.864,1.864,0,0,0-.806-1.587,3.729,3.729,0,0,0-2.231-.586,7.654,7.654,0,0,0-2.139.437v-2.646l3.082-3.634Z"/>
      <path class="cls-1" d="M31,215.276a2.814,2.814,0,0,0-2.311,1,5.068,5.068,0,0,0-1,2.726,5.754,5.754,0,0,1,3.174-.966,5.162,5.162,0,0,1,3.761,1.473,5.232,5.232,0,0,1,1.506,3.921,5.036,5.036,0,0,1-1.621,3.921,5.838,5.838,0,0,1-4.082,1.473,6.292,6.292,0,0,1-2.956-.656,4.753,4.753,0,0,1-1.943-1.828,10.836,10.836,0,0,1-1.38-5.7,12.557,12.557,0,0,1,.541-3.876,6.611,6.611,0,0,1,1.482-2.634,6.039,6.039,0,0,1,4.555-1.932,6.9,6.9,0,0,1,2.15.333,7.385,7.385,0,0,1,1.575.678,13.674,13.674,0,0,1,1.22.874l-1.7,2.53q-.138-.138-.4-.368a5.108,5.108,0,0,0-1.046-.6A3.575,3.575,0,0,0,31,215.276Zm-.471,5.8a2.637,2.637,0,0,0-1.795.632,2.084,2.084,0,0,0-.725,1.645,2.427,2.427,0,0,0,.69,1.736,2.279,2.279,0,0,0,1.726.725,2.428,2.428,0,0,0,1.725-.644,2.176,2.176,0,0,0,.689-1.667,2.51,2.51,0,0,0-.621-1.726A2.14,2.14,0,0,0,30.533,221.071Z"/>
    </g>
    <g>
      <path class="cls-1" d="M248.713,146.561h6.51v16.077h-3.45V149.62h-3.06Z"/>
      <path class="cls-1" d="M268.908,146.561v3.1H262.56v2.691a5.86,5.86,0,0,1,1.633-.207,6.041,6.041,0,0,1,4,1.4,4.675,4.675,0,0,1,1.679,3.784,5.043,5.043,0,0,1-1.736,3.933,6.2,6.2,0,0,1-4.289,1.553,7.049,7.049,0,0,1-5.451-2.415l1.887-2.622c.137.138.321.307.551.506a7.647,7.647,0,0,0,1.266.793,3.851,3.851,0,0,0,1.84.495,2.6,2.6,0,0,0,1.633-.552,1.937,1.937,0,0,0,.713-1.633,1.972,1.972,0,0,0-.77-1.667,3.2,3.2,0,0,0-1.99-.586,6.116,6.116,0,0,0-2.829.874l-1.5-1.61v-7.843Z"/>
      <path class="cls-1" d="M278.912,162.822a5.778,5.778,0,0,1-4.99-2.266,11.875,11.875,0,0,1,0-12.1,6.631,6.631,0,0,1,9.981,0,11.875,11.875,0,0,1,0,12.1A5.78,5.78,0,0,1,278.912,162.822Zm-2.369-12.19a10.347,10.347,0,0,0,0,7.774,2.642,2.642,0,0,0,4.738,0,10.323,10.323,0,0,0,0-7.774,2.642,2.642,0,0,0-4.738,0Z"/>
    </g>
    <g>
      <path class="cls-1" d="M461.067,105.763a3.956,3.956,0,0,0,3.1-1.725l2.048,2.3a7.118,7.118,0,0,1-5.175,2.484,6.707,6.707,0,0,1-4.7-1.76,6.469,6.469,0,0,1,.022-9.223,6.6,6.6,0,0,1,4.612-1.783,7.18,7.18,0,0,1,2.7.552,6.837,6.837,0,0,1,2.4,1.633l-1.795,2.346a4.075,4.075,0,0,0-1.46-1.1,4.124,4.124,0,0,0-1.714-.391,3.359,3.359,0,0,0-2.334.885,3.152,3.152,0,0,0-.979,2.461,3.114,3.114,0,0,0,.979,2.45A3.321,3.321,0,0,0,461.067,105.763Z"/>
      <path class="cls-1" d="M480.687,102.451a6.118,6.118,0,0,1-1.862,4.531,6.874,6.874,0,0,1-9.361,0,6.455,6.455,0,0,1,0-9.074,6.842,6.842,0,0,1,9.361,0A6.155,6.155,0,0,1,480.687,102.451Zm-9.614,0a3.546,3.546,0,0,0,.863,2.473,3.031,3.031,0,0,0,4.416,0,3.55,3.55,0,0,0,.862-2.473,3.592,3.592,0,0,0-.862-2.484,3.006,3.006,0,0,0-4.416,0A3.588,3.588,0,0,0,471.072,102.451Z"/>
      <path class="cls-1" d="M492.439,104.786a3.6,3.6,0,0,1-1.346,2.933,5.207,5.207,0,0,1-3.416,1.1,9.148,9.148,0,0,1-2.875-.495,8.48,8.48,0,0,1-2.69-1.46l1.519-2.162a6.607,6.607,0,0,0,4.116,1.5,1.857,1.857,0,0,0,1.058-.265.808.808,0,0,0,.392-.7,1.014,1.014,0,0,0-.54-.805,6.145,6.145,0,0,0-1.564-.69q-1.024-.322-1.564-.552a8.835,8.835,0,0,1-1.23-.667,2.854,2.854,0,0,1-1.4-2.587,3.388,3.388,0,0,1,1.38-2.794,5.611,5.611,0,0,1,3.565-1.081,7.776,7.776,0,0,1,4.369,1.472l-1.287,2.3a5.654,5.654,0,0,0-3.209-1.1q-1.6,0-1.6.874a.842.842,0,0,0,.506.759A10.226,10.226,0,0,0,488.3,101q1.173.368,1.668.564a8.378,8.378,0,0,1,1.185.609A2.812,2.812,0,0,1,492.439,104.786Z"/>
      <path class="cls-1" d="M499.109,98.748v5.543a1.592,1.592,0,0,0,.368,1.116,1.144,1.144,0,0,0,.874.4,1.992,1.992,0,0,0,1.633-.874l1.288,2.415a4.981,4.981,0,0,1-3.393,1.472,4.119,4.119,0,0,1-4.243-4.37v-5.7h-1.449V96.264h1.449v-3.7h3.473v3.7h2.99v2.484Z"/>
      <path class="cls-1" d="M514.428,104.786a3.6,3.6,0,0,1-1.346,2.933,5.211,5.211,0,0,1-3.416,1.1,9.143,9.143,0,0,1-2.875-.495,8.474,8.474,0,0,1-2.691-1.46l1.519-2.162a6.609,6.609,0,0,0,4.116,1.5,1.861,1.861,0,0,0,1.059-.265.809.809,0,0,0,.391-.7,1.012,1.012,0,0,0-.54-.805,6.12,6.12,0,0,0-1.563-.69q-1.025-.322-1.564-.552a8.726,8.726,0,0,1-1.23-.667,2.855,2.855,0,0,1-1.4-2.587,3.391,3.391,0,0,1,1.38-2.794,5.611,5.611,0,0,1,3.565-1.081,7.779,7.779,0,0,1,4.37,1.472l-1.288,2.3a5.651,5.651,0,0,0-3.208-1.1q-1.6,0-1.6.874a.842.842,0,0,0,.506.759,10.245,10.245,0,0,0,1.68.644q1.172.368,1.668.564a8.374,8.374,0,0,1,1.184.609A2.811,2.811,0,0,1,514.428,104.786Z"/>
    </g>
    <g>
      <path class="cls-1" d="M389.643,10.3a2.615,2.615,0,0,0-2.3,1.092,4.966,4.966,0,0,0-.758,2.887v5.359h-3.451V7.264h3.451V8.9a5.775,5.775,0,0,1,1.667-1.288,4.538,4.538,0,0,1,2.036-.552l.022,3.243Z"/>
      <path class="cls-1" d="M403.3,17.844a6.92,6.92,0,0,1-4.91,1.978,6.515,6.515,0,0,1-4.658-1.737,6.1,6.1,0,0,1-1.84-4.657,6.005,6.005,0,0,1,1.875-4.646A6.32,6.32,0,0,1,398.2,7.057,6.4,6.4,0,0,1,402.534,8.6a5.3,5.3,0,0,1,1.782,4.232v1.84H395.3a2.461,2.461,0,0,0,1.058,1.656,3.385,3.385,0,0,0,2.024.644,3.97,3.97,0,0,0,2.99-1.219Zm-3.312-7.337a2.61,2.61,0,0,0-1.736-.6,3.109,3.109,0,0,0-1.874.621,2.375,2.375,0,0,0-.989,1.679h5.428A2.446,2.446,0,0,0,399.992,10.507Z"/>
      <path class="cls-1" d="M409.951,19.638l-4.9-12.4h3.588l3.082,7.8,3.082-7.8h3.588l-4.9,12.4Z"/>
      <path class="cls-1" d="M430.813,17.844a6.92,6.92,0,0,1-4.91,1.978,6.515,6.515,0,0,1-4.658-1.737,6.1,6.1,0,0,1-1.84-4.657,6.005,6.005,0,0,1,1.875-4.646,6.32,6.32,0,0,1,4.428-1.725A6.4,6.4,0,0,1,430.042,8.6a5.3,5.3,0,0,1,1.782,4.232v1.84h-9.016a2.461,2.461,0,0,0,1.058,1.656,3.385,3.385,0,0,0,2.024.644,3.97,3.97,0,0,0,2.99-1.219ZM427.5,10.507a2.61,2.61,0,0,0-1.736-.6,3.109,3.109,0,0,0-1.874.621,2.375,2.375,0,0,0-.989,1.679h5.428A2.446,2.446,0,0,0,427.5,10.507Z"/>
      <path class="cls-1" d="M437.758,12.738v6.9h-3.449V7.264h3.449v1.38a4.832,4.832,0,0,1,3.52-1.587,4.358,4.358,0,0,1,3.277,1.38,5.1,5.1,0,0,1,1.322,3.68v7.521h-3.449V12.646q0-2.851-2.094-2.852a2.51,2.51,0,0,0-1.8.748A2.921,2.921,0,0,0,437.758,12.738Z"/>
      <path class="cls-1" d="M456.986,13.934V7.264h3.473V19.638h-3.473V18.006a3.916,3.916,0,0,1-3.324,1.817,4.842,4.842,0,0,1-3.415-1.276,4.9,4.9,0,0,1-1.38-3.784v-7.5h3.473V14q0,2.852,2.094,2.852a2.471,2.471,0,0,0,1.793-.747A2.919,2.919,0,0,0,456.986,13.934Z"/>
      <path class="cls-1" d="M474.443,17.844a6.92,6.92,0,0,1-4.91,1.978,6.515,6.515,0,0,1-4.658-1.737,6.1,6.1,0,0,1-1.84-4.657,6.005,6.005,0,0,1,1.875-4.646,6.32,6.32,0,0,1,4.428-1.725A6.4,6.4,0,0,1,473.673,8.6a5.3,5.3,0,0,1,1.782,4.232v1.84h-9.016a2.461,2.461,0,0,0,1.058,1.656,3.385,3.385,0,0,0,2.024.644,3.97,3.97,0,0,0,2.99-1.219Zm-3.312-7.337a2.61,2.61,0,0,0-1.736-.6,3.109,3.109,0,0,0-1.874.621,2.375,2.375,0,0,0-.989,1.679h5.428A2.446,2.446,0,0,0,471.131,10.507Z"/>
    </g>
    <line class="cls-2" x1="50.875" y1="2.303" x2="50.875" y2="368.303"/>
    <line class="cls-2" x1="511.875" y1="2.803" x2="47.875" y2="349.803"/>
    <line class="cls-2" x1="543.875" y1="111.803" x2="47.875" y2="223.803"/>
    <line class="cls-2" x1="23.875" y1="348.803" x2="550.875" y2="348.803"/>
  </g>
</svg>
