<svg id="Layer_1" data-name="Layer 1" xmlns="http://www.w3.org/2000/svg" viewBox="0 0 510.5 186.085">
  <defs>
    <style>
      .cls-1, .cls-2 {
        fill: #fff;
      }

      .cls-1 {
        stroke: #fff;
        stroke-miterlimit: 10;
        stroke-width: 7px;
      }
    </style>
  </defs>
  <title>c0dd2c14-a88f-41c3-90b2-ec2aaad07005</title>
  <g>
    <line class="cls-1" y1="3.5" x2="510.14" y2="3.5"/>
    <g>
      <path class="cls-2" d="M31.875,23.249v.828h2.99v2.484h-2.99v9.775H28.4V26.561H26.953V24.077H28.4v-.759a4.141,4.141,0,0,1,4.289-4.393,4.788,4.788,0,0,1,3.324,1.38l-1.242,2.323a2.207,2.207,0,0,0-1.679-.874,1.131,1.131,0,0,0-.874.379A1.6,1.6,0,0,0,31.875,23.249Z"/>
      <path class="cls-2" d="M37.291,22.386a2.054,2.054,0,1,1,1.438.587A1.954,1.954,0,0,1,37.291,22.386Zm3.163,13.95H37V23.961h3.45Z"/>
      <path class="cls-2" d="M46.732,23.961l2.117,3.312,2.184-3.312h4.049L50.827,30.01l4.415,6.325H51.126l-2.415-3.4-2.346,3.4H42.386l4.324-6.3-4.095-6.072Z"/>
      <path class="cls-2" d="M67.893,34.542a6.916,6.916,0,0,1-4.91,1.978,6.512,6.512,0,0,1-4.657-1.737,6.1,6.1,0,0,1-1.841-4.657,6.005,6.005,0,0,1,1.875-4.646,6.323,6.323,0,0,1,4.428-1.725A6.408,6.408,0,0,1,67.123,25.3,5.3,5.3,0,0,1,68.9,29.527v1.84H59.889a2.462,2.462,0,0,0,1.059,1.656,3.382,3.382,0,0,0,2.023.644,3.969,3.969,0,0,0,2.99-1.219ZM64.581,27.2a2.612,2.612,0,0,0-1.736-.6,3.1,3.1,0,0,0-1.874.621,2.373,2.373,0,0,0-.99,1.679h5.429A2.45,2.45,0,0,0,64.581,27.2Z"/>
      <path class="cls-2" d="M76.346,36.52a5.227,5.227,0,0,1-3.922-1.863A6.543,6.543,0,0,1,70.7,30.034a6.275,6.275,0,0,1,1.679-4.52,5.269,5.269,0,0,1,3.933-1.76,4.72,4.72,0,0,1,3.68,1.587V19.27h3.451V36.335H79.99V34.7A4.474,4.474,0,0,1,76.346,36.52Zm-2.174-6.348a3.434,3.434,0,0,0,.9,2.45,2.79,2.79,0,0,0,2.094.955,2.615,2.615,0,0,0,2.035-.955,3.59,3.59,0,0,0,.84-2.461,3.768,3.768,0,0,0-.84-2.507,2.59,2.59,0,0,0-2.059-1,2.677,2.677,0,0,0-2.093,1.012A3.7,3.7,0,0,0,74.172,30.171Z"/>
      <path class="cls-2" d="M98.713,33.46a3.956,3.956,0,0,0,3.1-1.725l2.048,2.3a7.12,7.12,0,0,1-5.176,2.484,6.7,6.7,0,0,1-4.7-1.76,5.943,5.943,0,0,1-1.921-4.6,5.984,5.984,0,0,1,1.943-4.623,6.594,6.594,0,0,1,4.612-1.783,7.188,7.188,0,0,1,2.7.552,6.833,6.833,0,0,1,2.4,1.633l-1.794,2.346a4.272,4.272,0,0,0-3.175-1.5,3.361,3.361,0,0,0-2.334.885,3.151,3.151,0,0,0-.978,2.461,3.113,3.113,0,0,0,.978,2.45A3.324,3.324,0,0,0,98.713,33.46Z"/>
      <path class="cls-2" d="M118.331,30.148a6.118,6.118,0,0,1-1.862,4.531,6.874,6.874,0,0,1-9.361,0,6.455,6.455,0,0,1,0-9.074,6.842,6.842,0,0,1,9.361,0A6.155,6.155,0,0,1,118.331,30.148Zm-9.614,0a3.546,3.546,0,0,0,.863,2.473,3.031,3.031,0,0,0,4.416,0,3.55,3.55,0,0,0,.862-2.473A3.592,3.592,0,0,0,114,27.665a3.006,3.006,0,0,0-4.416,0A3.588,3.588,0,0,0,108.717,30.148Z"/>
      <path class="cls-2" d="M130.084,32.483a3.6,3.6,0,0,1-1.346,2.933,5.206,5.206,0,0,1-3.415,1.1,9.148,9.148,0,0,1-2.875-.495,8.47,8.47,0,0,1-2.69-1.46l1.518-2.162a6.607,6.607,0,0,0,4.117,1.5,1.859,1.859,0,0,0,1.058-.265.81.81,0,0,0,.392-.7,1.016,1.016,0,0,0-.541-.805,6.114,6.114,0,0,0-1.564-.69q-1.022-.322-1.563-.552a8.726,8.726,0,0,1-1.23-.667,2.855,2.855,0,0,1-1.4-2.587,3.389,3.389,0,0,1,1.381-2.794,5.608,5.608,0,0,1,3.564-1.081,7.771,7.771,0,0,1,4.369,1.472l-1.287,2.3a5.652,5.652,0,0,0-3.209-1.1q-1.6,0-1.6.874a.84.84,0,0,0,.506.759,10.19,10.19,0,0,0,1.679.644q1.173.368,1.667.564a8.434,8.434,0,0,1,1.186.609A2.814,2.814,0,0,1,130.084,32.483Z"/>
      <path class="cls-2" d="M136.754,26.445v5.543a1.592,1.592,0,0,0,.368,1.116,1.144,1.144,0,0,0,.874.4,1.992,1.992,0,0,0,1.633-.874l1.288,2.415a4.981,4.981,0,0,1-3.393,1.472,4.119,4.119,0,0,1-4.243-4.37v-5.7h-1.449V23.961h1.449v-3.7h3.473v3.7h2.99v2.484Z"/>
    </g>
    <g>
      <path class="cls-2" d="M409.336,37.922V36.244a10.483,10.483,0,0,1-5.383-2.645l2.139-2.6a9.3,9.3,0,0,0,3.244,2V29.573a8.194,8.194,0,0,1-3.543-1.667,3.909,3.909,0,0,1-1.127-3.013,4.371,4.371,0,0,1,1.289-3.243,5.589,5.589,0,0,1,3.381-1.529V18.994h2.438v1.173a10.583,10.583,0,0,1,4.577,1.909l-1.886,2.714a8.818,8.818,0,0,0-2.691-1.38v3.312a8.653,8.653,0,0,1,3.668,1.725,3.932,3.932,0,0,1,1.186,3.059,4.367,4.367,0,0,1-1.322,3.266,5.845,5.845,0,0,1-3.531,1.541v1.61Zm0-14.6a1.277,1.277,0,0,0-.989,1.265,1.516,1.516,0,0,0,.989,1.4Zm3.61,8.372a1.268,1.268,0,0,0-.253-.805,2.26,2.26,0,0,0-.92-.6v2.829A1.432,1.432,0,0,0,412.946,31.689Z"/>
      <path class="cls-2" d="M431.094,29.39V26.583h3.449V29.39h1.817v3.1h-1.817v3.841h-3.449V32.495h-6.463V29.757l5.727-9.5h3.91l-5.451,9.131Z"/>
      <path class="cls-2" d="M445.262,36.52a5.781,5.781,0,0,1-4.992-2.266,10.032,10.032,0,0,1-1.655-6.049,10.035,10.035,0,0,1,1.655-6.049,6.632,6.632,0,0,1,9.982,0,10.035,10.035,0,0,1,1.656,6.049,10.032,10.032,0,0,1-1.656,6.049A5.778,5.778,0,0,1,445.262,36.52Zm-2.369-12.19a8.509,8.509,0,0,0-.76,3.887,8.508,8.508,0,0,0,.76,3.887,2.642,2.642,0,0,0,4.738,0,8.51,8.51,0,0,0,.758-3.887,8.51,8.51,0,0,0-.758-3.887,2.642,2.642,0,0,0-4.738,0Z"/>
      <path class="cls-2" d="M459.521,33.438a2.813,2.813,0,0,0,2.311-1,5.071,5.071,0,0,0,1-2.726,5.583,5.583,0,0,1-3.175.989,5.143,5.143,0,0,1-3.76-1.484,5.258,5.258,0,0,1-1.507-3.921,5.058,5.058,0,0,1,1.622-3.921,5.813,5.813,0,0,1,4.082-1.483,6.293,6.293,0,0,1,2.955.655,4.912,4.912,0,0,1,1.967,1.829,10.989,10.989,0,0,1,1.357,5.7,12.585,12.585,0,0,1-.541,3.875,6.808,6.808,0,0,1-1.46,2.633A6.159,6.159,0,0,1,459.8,36.52a7.006,7.006,0,0,1-2.162-.333,7.208,7.208,0,0,1-1.564-.667q-.529-.333-1.219-.863l1.795-2.53q.16.138.425.356a5.72,5.72,0,0,0,1.023.586A3.28,3.28,0,0,0,459.521,33.438Zm.494-5.8a2.616,2.616,0,0,0,1.782-.621,2.06,2.06,0,0,0,.713-1.633,2.465,2.465,0,0,0-.69-1.748A2.265,2.265,0,0,0,460.1,22.9a2.288,2.288,0,0,0-1.69.656,2.26,2.26,0,0,0-.655,1.667,2.552,2.552,0,0,0,.6,1.713A2.073,2.073,0,0,0,460.016,27.642Z"/>
      <path class="cls-2" d="M475.6,36.52a5.78,5.78,0,0,1-4.991-2.266,10.025,10.025,0,0,1-1.655-6.049,10.028,10.028,0,0,1,1.655-6.049,6.631,6.631,0,0,1,9.981,0,10.028,10.028,0,0,1,1.656,6.049,10.026,10.026,0,0,1-1.656,6.049A5.778,5.778,0,0,1,475.6,36.52Zm-2.369-12.19a8.51,8.51,0,0,0-.759,3.887,8.509,8.509,0,0,0,.759,3.887,2.642,2.642,0,0,0,4.738,0,8.509,8.509,0,0,0,.759-3.887,8.51,8.51,0,0,0-.759-3.887,2.642,2.642,0,0,0-4.738,0Z"/>
    </g>
    <g>
      <path class="cls-2" d="M409.336,85.922V84.244a10.483,10.483,0,0,1-5.383-2.645l2.139-2.6a9.3,9.3,0,0,0,3.244,2V77.573a8.194,8.194,0,0,1-3.543-1.667,3.909,3.909,0,0,1-1.127-3.013,4.371,4.371,0,0,1,1.289-3.243,5.589,5.589,0,0,1,3.381-1.529V66.994h2.438v1.173a10.583,10.583,0,0,1,4.577,1.909l-1.886,2.714a8.818,8.818,0,0,0-2.691-1.38v3.312a8.653,8.653,0,0,1,3.668,1.725,3.932,3.932,0,0,1,1.186,3.059,4.367,4.367,0,0,1-1.322,3.266,5.845,5.845,0,0,1-3.531,1.541v1.61Zm0-14.6a1.277,1.277,0,0,0-.989,1.265,1.516,1.516,0,0,0,.989,1.4Zm3.61,8.372a1.268,1.268,0,0,0-.253-.805,2.26,2.26,0,0,0-.92-.6v2.829A1.432,1.432,0,0,0,412.946,79.689Z"/>
      <path class="cls-2" d="M431.737,84.52a5.779,5.779,0,0,1-4.991-2.266,10.032,10.032,0,0,1-1.656-6.049,10.035,10.035,0,0,1,1.656-6.049,6.632,6.632,0,0,1,9.982,0,10.035,10.035,0,0,1,1.656,6.049,10.032,10.032,0,0,1-1.656,6.049A5.78,5.78,0,0,1,431.737,84.52Zm-2.369-12.19a10.335,10.335,0,0,0,0,7.774,2.642,2.642,0,0,0,4.738,0,10.335,10.335,0,0,0,0-7.774,2.642,2.642,0,0,0-4.738,0Z"/>
      <path class="cls-2" d="M441.547,83.933a2.055,2.055,0,1,1,1.438.586A1.953,1.953,0,0,1,441.547,83.933Z"/>
      <path class="cls-2" d="M453.587,77.39V74.583h3.45V77.39h1.816v3.1h-1.816v3.841h-3.45V80.495h-6.463V77.757l5.728-9.5h3.909l-5.45,9.131Z"/>
      <path class="cls-2" d="M471.458,68.258v3.1h-6.349v2.691a5.86,5.86,0,0,1,1.633-.207,6.041,6.041,0,0,1,4,1.4,4.676,4.676,0,0,1,1.68,3.784,5.046,5.046,0,0,1-1.736,3.933A6.2,6.2,0,0,1,466.4,84.52a7.047,7.047,0,0,1-5.451-2.415l1.886-2.622q.207.207.552.506a7.6,7.6,0,0,0,1.266.793,3.848,3.848,0,0,0,1.84.495,2.6,2.6,0,0,0,1.633-.552,1.94,1.94,0,0,0,.713-1.633,1.972,1.972,0,0,0-.771-1.667,3.2,3.2,0,0,0-1.989-.586,6.12,6.12,0,0,0-2.83.874l-1.494-1.61V68.258Z"/>
      <path class="cls-2" d="M480.818,77.39V74.583h3.45V77.39h1.817v3.1h-1.817v3.841h-3.45V80.495h-6.463V77.757l5.727-9.5h3.91l-5.451,9.131Z"/>
    </g>
    <g>
      <path class="cls-2" d="M409.336,133.922v-1.679a10.483,10.483,0,0,1-5.383-2.645l2.139-2.6a9.3,9.3,0,0,0,3.244,2v-3.427a8.194,8.194,0,0,1-3.543-1.667,3.909,3.909,0,0,1-1.127-3.013,4.371,4.371,0,0,1,1.289-3.243,5.589,5.589,0,0,1,3.381-1.529v-1.127h2.438v1.173a10.583,10.583,0,0,1,4.577,1.909l-1.886,2.714a8.818,8.818,0,0,0-2.691-1.38v3.312a8.653,8.653,0,0,1,3.668,1.725,3.932,3.932,0,0,1,1.186,3.059,4.367,4.367,0,0,1-1.322,3.266,5.845,5.845,0,0,1-3.531,1.541v1.61Zm0-14.6a1.277,1.277,0,0,0-.989,1.265,1.516,1.516,0,0,0,.989,1.4Zm3.61,8.372a1.268,1.268,0,0,0-.253-.805,2.26,2.26,0,0,0-.92-.6v2.829A1.432,1.432,0,0,0,412.946,127.689Z"/>
      <path class="cls-2" d="M431.094,125.39v-2.806h3.449v2.806h1.817v3.1h-1.817v3.841h-3.449v-3.841h-6.463v-2.737l5.727-9.5h3.91l-5.451,9.131Z"/>
      <path class="cls-2" d="M439.2,131.933a2.055,2.055,0,1,1,1.438.586A1.953,1.953,0,0,1,439.2,131.933Z"/>
      <path class="cls-2" d="M455.588,116.258v3.1H449.24v2.691a5.855,5.855,0,0,1,1.633-.207,6.041,6.041,0,0,1,4,1.4,4.676,4.676,0,0,1,1.68,3.784,5.05,5.05,0,0,1-1.736,3.933,6.2,6.2,0,0,1-4.29,1.553,7.047,7.047,0,0,1-5.451-2.415l1.886-2.622c.139.138.322.307.553.506a7.542,7.542,0,0,0,1.265.793,3.848,3.848,0,0,0,1.84.495,2.6,2.6,0,0,0,1.634-.552,1.94,1.94,0,0,0,.713-1.633,1.973,1.973,0,0,0-.771-1.667,3.193,3.193,0,0,0-1.989-.586,6.113,6.113,0,0,0-2.829.874l-1.494-1.61v-7.843Z"/>
      <path class="cls-2" d="M464.949,125.39v-2.806H468.4v2.806h1.817v3.1H468.4v3.841h-3.449v-3.841h-6.463v-2.737l5.727-9.5h3.91l-5.451,9.131Z"/>
    </g>
    <g>
      <path class="cls-2" d="M404.851,167.317v-3.059h9.844v2.484l-3.289,3.749a4.693,4.693,0,0,1,2.99,1.622,4.619,4.619,0,0,1,1.058,3,4.9,4.9,0,0,1-1.713,3.968,6.586,6.586,0,0,1-4.382,1.438,9.506,9.506,0,0,1-5.405-1.886l1.473-2.852a7.326,7.326,0,0,0,4.07,1.61,2.88,2.88,0,0,0,1.783-.529,1.8,1.8,0,0,0,.7-1.529,1.863,1.863,0,0,0-.8-1.587,3.729,3.729,0,0,0-2.231-.586,7.676,7.676,0,0,0-2.139.437v-2.645l3.082-3.634Z"/>
      <path class="cls-2" d="M424.653,180.52a5.779,5.779,0,0,1-4.991-2.266,11.875,11.875,0,0,1,0-12.1,6.632,6.632,0,0,1,9.982,0,11.875,11.875,0,0,1,0,12.1A5.78,5.78,0,0,1,424.653,180.52Zm-2.369-12.19a10.335,10.335,0,0,0,0,7.774,2.642,2.642,0,0,0,4.738,0,10.335,10.335,0,0,0,0-7.774,2.642,2.642,0,0,0-4.738,0Z"/>
    </g>
    <line class="cls-1" y1="51.5" x2="510.14" y2="51.5"/>
    <g>
      <path class="cls-2" d="M31.094,84.335l-4.9-12.4h3.589l3.081,7.8,3.082-7.8h3.589l-4.9,12.4Z"/>
      <path class="cls-2" d="M51.587,84.335H48.344v-1.5a4.063,4.063,0,0,1-3.3,1.679,4.909,4.909,0,0,1-3.3-1.139,3.792,3.792,0,0,1-1.334-3.036,3.211,3.211,0,0,1,1.381-2.84,6.6,6.6,0,0,1,3.771-.943h2.576v-.069q0-1.978-2.093-1.978a5.651,5.651,0,0,0-1.9.356,6.161,6.161,0,0,0-1.69.885l-1.541-2.231a9.228,9.228,0,0,1,5.565-1.771,5.756,5.756,0,0,1,3.68,1.127,4.267,4.267,0,0,1,1.427,3.565Zm-3.474-4.715v-.6H45.951q-2.068,0-2.069,1.288a1.184,1.184,0,0,0,.5,1.023,2.391,2.391,0,0,0,1.414.356,2.512,2.512,0,0,0,1.621-.563A1.832,1.832,0,0,0,48.113,79.621Z"/>
      <path class="cls-2" d="M61.246,75a2.613,2.613,0,0,0-2.3,1.092,4.966,4.966,0,0,0-.759,2.887v5.359h-3.45V71.961h3.45v1.633a5.779,5.779,0,0,1,1.668-1.288,4.534,4.534,0,0,1,2.035-.552L61.914,75Z"/>
      <path class="cls-2" d="M64.479,70.386a2.054,2.054,0,1,1,1.438.587A1.951,1.951,0,0,1,64.479,70.386Zm3.162,13.95H64.19V71.961h3.45Z"/>
      <path class="cls-2" d="M81.418,84.335H78.174v-1.5a4.062,4.062,0,0,1-3.3,1.679,4.907,4.907,0,0,1-3.3-1.139,3.789,3.789,0,0,1-1.334-3.036,3.21,3.21,0,0,1,1.38-2.84,6.6,6.6,0,0,1,3.772-.943h2.575v-.069q0-1.978-2.092-1.978a5.661,5.661,0,0,0-1.9.356,6.154,6.154,0,0,0-1.689.885l-1.541-2.231a9.228,9.228,0,0,1,5.565-1.771,5.756,5.756,0,0,1,3.68,1.127,4.27,4.27,0,0,1,1.427,3.565Zm-3.474-4.715v-.6H75.782q-2.07,0-2.069,1.288a1.184,1.184,0,0,0,.494,1.023,2.393,2.393,0,0,0,1.414.356,2.515,2.515,0,0,0,1.622-.563A1.832,1.832,0,0,0,77.944,79.621Z"/>
      <path class="cls-2" d="M91.7,71.754a5.267,5.267,0,0,1,3.933,1.76,6.279,6.279,0,0,1,1.68,4.52,6.548,6.548,0,0,1-1.726,4.623,5.227,5.227,0,0,1-3.921,1.863A4.479,4.479,0,0,1,88.018,82.7v1.633H84.568V67.27h3.449v6.072A4.723,4.723,0,0,1,91.7,71.754ZM87.973,78.16a3.589,3.589,0,0,0,.839,2.461,2.615,2.615,0,0,0,2.036.955,2.786,2.786,0,0,0,2.092-.955,3.43,3.43,0,0,0,.9-2.45,3.7,3.7,0,0,0-.874-2.507,2.676,2.676,0,0,0-2.093-1.012,2.589,2.589,0,0,0-2.059,1A3.768,3.768,0,0,0,87.973,78.16Z"/>
      <path class="cls-2" d="M103.336,84.335h-3.45V67.27h3.45Z"/>
      <path class="cls-2" d="M117.32,82.542a6.922,6.922,0,0,1-4.911,1.978,6.514,6.514,0,0,1-4.657-1.737,6.1,6.1,0,0,1-1.84-4.657,6,6,0,0,1,1.874-4.646,6.322,6.322,0,0,1,4.428-1.725,6.4,6.4,0,0,1,4.335,1.541,5.3,5.3,0,0,1,1.783,4.232v1.84h-9.016a2.456,2.456,0,0,0,1.057,1.656,3.388,3.388,0,0,0,2.025.644,3.968,3.968,0,0,0,2.989-1.219ZM114.008,75.2a2.612,2.612,0,0,0-1.736-.6,3.11,3.11,0,0,0-1.875.621,2.374,2.374,0,0,0-.988,1.679h5.428A2.454,2.454,0,0,0,114.008,75.2Z"/>
      <path class="cls-2" d="M132.821,81.46a3.956,3.956,0,0,0,3.1-1.725l2.048,2.3A7.118,7.118,0,0,1,132.8,84.52a6.707,6.707,0,0,1-4.7-1.76,6.469,6.469,0,0,1,.022-9.223,6.6,6.6,0,0,1,4.612-1.783,7.18,7.18,0,0,1,2.7.552,6.837,6.837,0,0,1,2.4,1.633l-1.795,2.346a4.075,4.075,0,0,0-1.46-1.1,4.124,4.124,0,0,0-1.714-.391,3.359,3.359,0,0,0-2.334.885,3.152,3.152,0,0,0-.979,2.461,3.114,3.114,0,0,0,.979,2.45A3.321,3.321,0,0,0,132.821,81.46Z"/>
      <path class="cls-2" d="M152.439,78.148a6.118,6.118,0,0,1-1.862,4.531,6.873,6.873,0,0,1-9.36,0,6.455,6.455,0,0,1,0-9.074,6.841,6.841,0,0,1,9.36,0A6.155,6.155,0,0,1,152.439,78.148Zm-9.613,0a3.545,3.545,0,0,0,.862,2.473,3.031,3.031,0,0,0,4.416,0,3.545,3.545,0,0,0,.862-2.473,3.588,3.588,0,0,0-.862-2.484,3.006,3.006,0,0,0-4.416,0A3.588,3.588,0,0,0,142.826,78.148Z"/>
      <path class="cls-2" d="M164.193,80.483a3.6,3.6,0,0,1-1.346,2.933,5.207,5.207,0,0,1-3.416,1.1,9.148,9.148,0,0,1-2.875-.495,8.48,8.48,0,0,1-2.69-1.46l1.519-2.162a6.607,6.607,0,0,0,4.116,1.5,1.857,1.857,0,0,0,1.058-.265.808.808,0,0,0,.392-.7,1.014,1.014,0,0,0-.54-.805,6.145,6.145,0,0,0-1.564-.69q-1.024-.322-1.564-.552a8.835,8.835,0,0,1-1.23-.667,2.854,2.854,0,0,1-1.4-2.587,3.388,3.388,0,0,1,1.38-2.794,5.611,5.611,0,0,1,3.565-1.081,7.776,7.776,0,0,1,4.369,1.472l-1.287,2.3a5.654,5.654,0,0,0-3.209-1.1q-1.6,0-1.6.874a.842.842,0,0,0,.506.759,10.226,10.226,0,0,0,1.679.644q1.173.368,1.668.564a8.378,8.378,0,0,1,1.185.609A2.812,2.812,0,0,1,164.193,80.483Z"/>
      <path class="cls-2" d="M170.863,74.445v5.543a1.592,1.592,0,0,0,.368,1.116,1.144,1.144,0,0,0,.874.4,1.992,1.992,0,0,0,1.633-.874l1.288,2.415a4.981,4.981,0,0,1-3.393,1.472,4.119,4.119,0,0,1-4.243-4.37v-5.7h-1.449V71.961h1.449v-3.7h3.473v3.7h2.99v2.484Z"/>
    </g>
    <line class="cls-1" x1="0.36" y1="99.5" x2="510.5" y2="99.5"/>
    <g>
      <path class="cls-2" d="M36.239,126.631v-6.67h3.474v12.374H36.239V130.7a3.913,3.913,0,0,1-3.323,1.817,4.842,4.842,0,0,1-3.416-1.276,4.9,4.9,0,0,1-1.379-3.784v-7.5h3.473V126.7q0,2.852,2.093,2.852a2.471,2.471,0,0,0,1.794-.747A2.918,2.918,0,0,0,36.239,126.631Z"/>
      <path class="cls-2" d="M46.429,125.436v6.9h-3.45V119.961h3.45v1.38a4.83,4.83,0,0,1,3.519-1.587,4.355,4.355,0,0,1,3.277,1.38,5.093,5.093,0,0,1,1.323,3.68v7.521H51.1v-6.992q0-2.851-2.093-2.852a2.511,2.511,0,0,0-1.806.748A2.925,2.925,0,0,0,46.429,125.436Z"/>
      <path class="cls-2" d="M57.963,118.386a2.054,2.054,0,1,1,1.438.587A1.954,1.954,0,0,1,57.963,118.386Zm3.162,13.95H57.676V119.961h3.449Z"/>
      <path class="cls-2" d="M68.508,122.445v5.543a1.588,1.588,0,0,0,.369,1.116,1.142,1.142,0,0,0,.873.4,1.99,1.99,0,0,0,1.633-.874l1.289,2.415a4.984,4.984,0,0,1-3.393,1.472,4.119,4.119,0,0,1-4.244-4.37v-5.7H63.586v-2.484h1.449v-3.7h3.473v3.7H71.5v2.484Z"/>
      <path class="cls-2" d="M87.781,119.754a5.157,5.157,0,0,1,3.854,1.806,6.385,6.385,0,0,1,1.689,4.542,6.509,6.509,0,0,1-1.689,4.577,5.217,5.217,0,0,1-3.957,1.84,4.355,4.355,0,0,1-3.645-1.817V136.8H80.582V119.961h3.451v1.38A5.125,5.125,0,0,1,87.781,119.754Zm-3.795,6.406a3.585,3.585,0,0,0,.84,2.461,2.615,2.615,0,0,0,2.035.955,2.79,2.79,0,0,0,2.094-.955,3.434,3.434,0,0,0,.9-2.45,3.7,3.7,0,0,0-.874-2.507,2.677,2.677,0,0,0-2.093-1.012,2.59,2.59,0,0,0-2.059,1A3.763,3.763,0,0,0,83.986,126.16Z"/>
      <path class="cls-2" d="M102.409,123a2.612,2.612,0,0,0-2.3,1.092,4.966,4.966,0,0,0-.76,2.887v5.359H95.9V119.961H99.35v1.633a5.806,5.806,0,0,1,1.668-1.288,4.537,4.537,0,0,1,2.035-.552l.023,3.243Z"/>
      <path class="cls-2" d="M105.641,118.386a2.054,2.054,0,1,1,1.438.587A1.954,1.954,0,0,1,105.641,118.386Zm3.162,13.95h-3.449V119.961H108.8Z"/>
      <path class="cls-2" d="M118,129.46a3.956,3.956,0,0,0,3.1-1.725l2.048,2.3a7.118,7.118,0,0,1-5.175,2.484,6.707,6.707,0,0,1-4.7-1.76,6.469,6.469,0,0,1,.022-9.223,6.6,6.6,0,0,1,4.612-1.783,7.18,7.18,0,0,1,2.7.552,6.837,6.837,0,0,1,2.4,1.633l-1.795,2.346a4.075,4.075,0,0,0-1.46-1.1,4.124,4.124,0,0,0-1.714-.391,3.359,3.359,0,0,0-2.334.885,3.152,3.152,0,0,0-.979,2.461,3.114,3.114,0,0,0,.979,2.45A3.321,3.321,0,0,0,118,129.46Z"/>
      <path class="cls-2" d="M136.173,130.542a6.918,6.918,0,0,1-4.911,1.978,6.511,6.511,0,0,1-4.656-1.737,6.1,6.1,0,0,1-1.841-4.657,6,6,0,0,1,1.874-4.646,6.325,6.325,0,0,1,4.428-1.725A6.4,6.4,0,0,1,135.4,121.3a5.3,5.3,0,0,1,1.782,4.232v1.84h-9.016a2.457,2.457,0,0,0,1.058,1.656,3.385,3.385,0,0,0,2.024.644,3.967,3.967,0,0,0,2.989-1.219Zm-3.312-7.337a2.614,2.614,0,0,0-1.736-.6,3.105,3.105,0,0,0-1.875.621,2.371,2.371,0,0,0-.989,1.679h5.429A2.458,2.458,0,0,0,132.861,123.2Z"/>
    </g>
    <line class="cls-1" x1="0.36" y1="147.5" x2="510.5" y2="147.5"/>
    <g>
      <path class="cls-2" d="M35.389,167.754a5.269,5.269,0,0,1,3.933,1.76A6.279,6.279,0,0,1,41,174.034a6.543,6.543,0,0,1-1.725,4.623,5.227,5.227,0,0,1-3.922,1.863,4.474,4.474,0,0,1-3.645-1.817v1.633H28.258V163.27h3.451v6.072A4.72,4.72,0,0,1,35.389,167.754Zm-3.727,6.406a3.585,3.585,0,0,0,.84,2.461,2.615,2.615,0,0,0,2.035.955,2.79,2.79,0,0,0,2.094-.955,3.434,3.434,0,0,0,.9-2.45,3.7,3.7,0,0,0-.874-2.507,2.677,2.677,0,0,0-2.093-1.012,2.59,2.59,0,0,0-2.059,1A3.763,3.763,0,0,0,31.662,174.16Z"/>
      <path class="cls-2" d="M50.086,171a2.614,2.614,0,0,0-2.3,1.092,4.966,4.966,0,0,0-.759,2.887v5.359h-3.45V167.961h3.45v1.633a5.8,5.8,0,0,1,1.667-1.288,4.541,4.541,0,0,1,2.036-.552L50.752,171Z"/>
      <path class="cls-2" d="M63.747,178.542a6.918,6.918,0,0,1-4.911,1.978,6.511,6.511,0,0,1-4.656-1.737,6.1,6.1,0,0,1-1.841-4.657,6,6,0,0,1,1.874-4.646,6.325,6.325,0,0,1,4.428-1.725,6.4,6.4,0,0,1,4.336,1.541,5.3,5.3,0,0,1,1.782,4.232v1.84H55.743a2.457,2.457,0,0,0,1.058,1.656,3.385,3.385,0,0,0,2.024.644,3.967,3.967,0,0,0,2.989-1.219ZM60.436,171.2a2.614,2.614,0,0,0-1.736-.6,3.105,3.105,0,0,0-1.875.621,2.371,2.371,0,0,0-.989,1.679h5.429A2.458,2.458,0,0,0,60.436,171.2Z"/>
      <path class="cls-2" d="M77.754,180.335H74.511v-1.5a4.064,4.064,0,0,1-3.3,1.679,4.905,4.905,0,0,1-3.3-1.139,3.789,3.789,0,0,1-1.334-3.036,3.208,3.208,0,0,1,1.38-2.84,6.6,6.6,0,0,1,3.772-.943H74.3v-.069q0-1.978-2.093-1.978a5.655,5.655,0,0,0-1.9.356,6.161,6.161,0,0,0-1.69.885l-1.541-2.231a9.228,9.228,0,0,1,5.566-1.771,5.76,5.76,0,0,1,3.68,1.127,4.269,4.269,0,0,1,1.426,3.565Zm-3.473-4.715v-.6H72.119q-2.071,0-2.07,1.288a1.184,1.184,0,0,0,.494,1.023,2.394,2.394,0,0,0,1.415.356,2.519,2.519,0,0,0,1.622-.563A1.835,1.835,0,0,0,74.281,175.621Z"/>
      <path class="cls-2" d="M84.355,180.335H80.9V163.27h3.451v8.763l3.84-4.094h4.348l-4.715,5.014,4.9,7.383H88.633l-3.15-4.738-1.127,1.173Z"/>
      <path class="cls-2" d="M111.379,178.542a6.916,6.916,0,0,1-4.91,1.978,6.512,6.512,0,0,1-4.657-1.737,6.1,6.1,0,0,1-1.841-4.657,6.005,6.005,0,0,1,1.875-4.646,6.323,6.323,0,0,1,4.428-1.725,6.408,6.408,0,0,1,4.336,1.541,5.3,5.3,0,0,1,1.781,4.232v1.84h-9.016a2.462,2.462,0,0,0,1.059,1.656,3.382,3.382,0,0,0,2.023.644,3.969,3.969,0,0,0,2.99-1.219Zm-3.312-7.337a2.612,2.612,0,0,0-1.736-.6,3.1,3.1,0,0,0-1.874.621,2.373,2.373,0,0,0-.99,1.679H108.9A2.45,2.45,0,0,0,108.067,171.2Z"/>
      <path class="cls-2" d="M118.025,180.335l-4.9-12.4h3.588l3.082,7.8,3.082-7.8h3.588l-4.9,12.4Z"/>
      <path class="cls-2" d="M138.887,178.542a6.916,6.916,0,0,1-4.91,1.978,6.512,6.512,0,0,1-4.657-1.737,6.1,6.1,0,0,1-1.841-4.657,6.005,6.005,0,0,1,1.875-4.646,6.323,6.323,0,0,1,4.428-1.725,6.408,6.408,0,0,1,4.336,1.541,5.3,5.3,0,0,1,1.781,4.232v1.84h-9.016a2.462,2.462,0,0,0,1.059,1.656,3.382,3.382,0,0,0,2.023.644,3.969,3.969,0,0,0,2.99-1.219Zm-3.312-7.337a2.612,2.612,0,0,0-1.736-.6,3.1,3.1,0,0,0-1.874.621,2.373,2.373,0,0,0-.99,1.679H136.4A2.45,2.45,0,0,0,135.575,171.2Z"/>
      <path class="cls-2" d="M145.833,173.436v6.9h-3.45V167.961h3.45v1.38a4.83,4.83,0,0,1,3.519-1.587,4.355,4.355,0,0,1,3.277,1.38,5.093,5.093,0,0,1,1.323,3.68v7.521H150.5v-6.992q0-2.851-2.093-2.852a2.511,2.511,0,0,0-1.806.748A2.925,2.925,0,0,0,145.833,173.436Z"/>
      <path class="cls-2" d="M166.936,167.812a15.287,15.287,0,0,0,0,10.637,18.482,18.482,0,0,0,2.334,4.807h-3.726a16.721,16.721,0,0,1-2.059-4.474,17.628,17.628,0,0,1,0-11.3,16.691,16.691,0,0,1,2.059-4.485h3.726A18.942,18.942,0,0,0,166.936,167.812Z"/>
      <path class="cls-2" d="M175.836,180.52a5.225,5.225,0,0,1-3.921-1.863,6.548,6.548,0,0,1-1.726-4.623,6.279,6.279,0,0,1,1.68-4.52,5.268,5.268,0,0,1,3.934-1.76,4.723,4.723,0,0,1,3.68,1.587V163.27h3.449v17.066h-3.449V178.7A4.479,4.479,0,0,1,175.836,180.52Zm-2.173-6.348a3.43,3.43,0,0,0,.9,2.45,2.786,2.786,0,0,0,2.092.955,2.615,2.615,0,0,0,2.036-.955,3.589,3.589,0,0,0,.839-2.461,3.768,3.768,0,0,0-.839-2.507,2.59,2.59,0,0,0-2.059-1,2.676,2.676,0,0,0-2.093,1.012A3.7,3.7,0,0,0,173.663,174.171Z"/>
      <path class="cls-2" d="M196.709,180.335h-3.243v-1.5a4.064,4.064,0,0,1-3.3,1.679,4.905,4.905,0,0,1-3.3-1.139,3.789,3.789,0,0,1-1.334-3.036,3.208,3.208,0,0,1,1.38-2.84,6.6,6.6,0,0,1,3.772-.943h2.575v-.069q0-1.978-2.093-1.978a5.655,5.655,0,0,0-1.9.356,6.161,6.161,0,0,0-1.69.885l-1.541-2.231a9.228,9.228,0,0,1,5.566-1.771,5.76,5.76,0,0,1,3.68,1.127,4.269,4.269,0,0,1,1.426,3.565Zm-3.473-4.715v-.6h-2.162q-2.071,0-2.07,1.288a1.184,1.184,0,0,0,.494,1.023,2.394,2.394,0,0,0,1.415.356,2.519,2.519,0,0,0,1.622-.563A1.835,1.835,0,0,0,193.236,175.621Z"/>
      <path class="cls-2" d="M201.838,185.211a5.016,5.016,0,0,1-3.427-1.472l1.563-2.553a2.586,2.586,0,0,0,1.795.851,1.006,1.006,0,0,0,.827-.472,1.663,1.663,0,0,0,.345-1q0-.529-4.783-12.6h3.68l3.014,7.705,3.012-7.705h3.681l-5.75,14.582a4.1,4.1,0,0,1-1.575,1.966A4.248,4.248,0,0,1,201.838,185.211Z"/>
      <path class="cls-2" d="M214.293,178.449a15.3,15.3,0,0,0,0-10.637,18.942,18.942,0,0,0-2.334-4.818h3.725a16.661,16.661,0,0,1,2.059,4.485,17.611,17.611,0,0,1,0,11.3,16.69,16.69,0,0,1-2.059,4.474h-3.725A18.482,18.482,0,0,0,214.293,178.449Z"/>
    </g>
  </g>
</svg>
